HIERARCHY
ROOT Hips
{
	OFFSET -14.64140 90.27770 -84.91600
	CHANNELS 6 Xposition Yposition Zposition Zrotation Xrotation Yrotation
	JOINT Spine
	{
		OFFSET 0.00000 13.20850 -1.60436
		CHANNELS 3 Zrotation Xrotation Yrotation
		JOINT Spine1
		{
			OFFSET 0.00000 8.61716 0.00000
			CHANNELS 3 Zrotation Xrotation Yrotation
			JOINT Spine2
			{
				OFFSET 0.00000 8.61717 0.00000
				CHANNELS 3 Zrotation Xrotation Yrotation
				JOINT Spine3
				{
					OFFSET 0.00000 8.61717 0.00000
					CHANNELS 3 Zrotation Xrotation Yrotation
					JOINT Neck
					{
						OFFSET 0.00000 11.07920 1.10792
						CHANNELS 3 Zrotation Xrotation Yrotation
						JOINT Neck1
						{
							OFFSET 0.00000 7.08032 0.00000
							CHANNELS 3 Zrotation Xrotation Yrotation
							JOINT Head
							{
								OFFSET 0.00000 7.08031 0.00000
								CHANNELS 3 Zrotation Xrotation Yrotation
								End site
								{
									OFFSET 0.00000 0.00000 0.00000
								}
							}
						}
					}
					JOINT RightShoulder
					{
						OFFSET -0.01000 7.91373 5.19711
						CHANNELS 3 Zrotation Xrotation Yrotation
						JOINT RightArm
						{
							OFFSET -18.41580 0.00000 0.00000
							CHANNELS 3 Zrotation Xrotation Yrotation
							JOINT RightForeArm
							{
								OFFSET -29.11090 0.00000 0.00000
								CHANNELS 3 Zrotation Xrotation Yrotation
								JOINT RightHand
								{
									OFFSET -24.65040 0.00000 0.00000
									CHANNELS 3 Zrotation Xrotation Yrotation
									JOINT RightHandThumb1
									{
										OFFSET -5.35114 -0.85590 3.97906
										CHANNELS 3 Zrotation Xrotation Yrotation
										JOINT RightHandThumb2
										{
											OFFSET -4.52789 0.00000 0.00000
											CHANNELS 3 Zrotation Xrotation Yrotation
											JOINT RightHandThumb3
											{
												OFFSET -2.46976 0.00000 0.00000
												CHANNELS 3 Zrotation Xrotation Yrotation
												End site
												{
													OFFSET 0.00000 0.00000 0.00000
												}
											}
										}
									}
									JOINT RightHandIndex1
									{
										OFFSET -14.26970 0.00000 2.88139
										CHANNELS 3 Zrotation Xrotation Yrotation
										JOINT RightHandIndex2
										{
											OFFSET -5.48836 0.00000 0.00000
											CHANNELS 3 Zrotation Xrotation Yrotation
											JOINT RightHandIndex3
											{
												OFFSET -3.01859 0.00000 0.00000
												CHANNELS 3 Zrotation Xrotation Yrotation
												End site
												{
													OFFSET 0.00000 0.00000 0.00000
												}
											}
										}
									}
									JOINT RightHandMiddle1
									{
										OFFSET -14.26970 0.00000 -0.09147
										CHANNELS 3 Zrotation Xrotation Yrotation
										JOINT RightHandMiddle2
										{
											OFFSET -6.17441 0.00000 0.00000
											CHANNELS 3 Zrotation Xrotation Yrotation
											JOINT RightHandMiddle3
											{
												OFFSET -3.56743 0.00000 0.00000
												CHANNELS 3 Zrotation Xrotation Yrotation
												End site
												{
													OFFSET 0.00000 0.00000 0.00000
												}
											}
										}
									}
									JOINT RightHandRing1
									{
										OFFSET -12.69180 0.00000 -3.06433
										CHANNELS 3 Zrotation Xrotation Yrotation
										JOINT RightHandRing2
										{
											OFFSET -5.62556 0.00000 0.00000
											CHANNELS 3 Zrotation Xrotation Yrotation
											JOINT RightHandRing3
											{
												OFFSET -3.56744 0.00000 0.00000
												CHANNELS 3 Zrotation Xrotation Yrotation
												End site
												{
													OFFSET 0.00000 0.00000 0.00000
												}
											}
										}
									}
									JOINT RightHandPinky1
									{
										OFFSET -11.11390 0.00000 -6.03719
										CHANNELS 3 Zrotation Xrotation Yrotation
										JOINT RightHandPinky2
										{
											OFFSET -4.52789 0.00000 0.00000
											CHANNELS 3 Zrotation Xrotation Yrotation
											JOINT RightHandPinky3
											{
												OFFSET -2.46976 0.00000 0.00000
												CHANNELS 3 Zrotation Xrotation Yrotation
												End site
												{
													OFFSET 0.00000 0.00000 0.00000
												}
											}
										}
									}
								}
							}
						}
					}
					JOINT LeftShoulder
					{
						OFFSET 0.01000 7.91373 5.19711
						CHANNELS 3 Zrotation Xrotation Yrotation
						JOINT LeftArm
						{
							OFFSET 18.41580 0.00000 0.00000
							CHANNELS 3 Zrotation Xrotation Yrotation
							JOINT LeftForeArm
							{
								OFFSET 29.11090 0.00000 0.00000
								CHANNELS 3 Zrotation Xrotation Yrotation
								JOINT LeftHand
								{
									OFFSET 24.65040 0.00000 0.00000
									CHANNELS 3 Zrotation Xrotation Yrotation
									JOINT LeftHandThumb1
									{
										OFFSET 5.35114 -0.85590 3.97906
										CHANNELS 3 Zrotation Xrotation Yrotation
										JOINT LeftHandThumb2
										{
											OFFSET 4.52789 0.00000 0.00000
											CHANNELS 3 Zrotation Xrotation Yrotation
											JOINT LeftHandThumb3
											{
												OFFSET 2.46977 0.00000 0.00000
												CHANNELS 3 Zrotation Xrotation Yrotation
												End site
												{
													OFFSET 0.00000 0.00000 0.00000
												}
											}
										}
									}
									JOINT LeftHandIndex1
									{
										OFFSET 14.26970 0.00000 2.88139
										CHANNELS 3 Zrotation Xrotation Yrotation
										JOINT LeftHandIndex2
										{
											OFFSET 5.48836 0.00000 0.00000
											CHANNELS 3 Zrotation Xrotation Yrotation
											JOINT LeftHandIndex3
											{
												OFFSET 3.01859 0.00000 0.00000
												CHANNELS 3 Zrotation Xrotation Yrotation
												End site
												{
													OFFSET 0.00000 0.00000 0.00000
												}
											}
										}
									}
									JOINT LeftHandMiddle1
									{
										OFFSET 14.26970 0.00000 -0.09147
										CHANNELS 3 Zrotation Xrotation Yrotation
										JOINT LeftHandMiddle2
										{
											OFFSET 6.17440 0.00000 0.00000
											CHANNELS 3 Zrotation Xrotation Yrotation
											JOINT LeftHandMiddle3
											{
												OFFSET 3.56744 0.00000 0.00000
												CHANNELS 3 Zrotation Xrotation Yrotation
												End site
												{
													OFFSET 0.00000 0.00000 0.00000
												}
											}
										}
									}
									JOINT LeftHandRing1
									{
										OFFSET 12.69180 0.00000 -3.06433
										CHANNELS 3 Zrotation Xrotation Yrotation
										JOINT LeftHandRing2
										{
											OFFSET 5.62556 0.00000 0.00000
											CHANNELS 3 Zrotation Xrotation Yrotation
											JOINT LeftHandRing3
											{
												OFFSET 3.56744 0.00000 0.00000
												CHANNELS 3 Zrotation Xrotation Yrotation
												End site
												{
													OFFSET 0.00000 0.00000 0.00000
												}
											}
										}
									}
									JOINT LeftHandPinky1
									{
										OFFSET 11.11390 0.00000 -6.03719
										CHANNELS 3 Zrotation Xrotation Yrotation
										JOINT LeftHandPinky2
										{
											OFFSET 4.52789 0.00000 0.00000
											CHANNELS 3 Zrotation Xrotation Yrotation
											JOINT LeftHandPinky3
											{
												OFFSET 2.46976 0.00000 0.00000
												CHANNELS 3 Zrotation Xrotation Yrotation
												End site
												{
													OFFSET 0.00000 0.00000 0.00000
												}
											}
										}
									}
								}
							}
						}
					}
					JOINT pCube4
					{
						OFFSET 0.00000 10.91090 1.10792
						CHANNELS 3 Zrotation Xrotation Yrotation
						End site
						{
							OFFSET 0.00000 0.00000 0.00000
						}
					}
				}
			}
		}
	}
	JOINT RightUpLeg
	{
		OFFSET -9.98441 0.00000 0.00000
		CHANNELS 3 Zrotation Xrotation Yrotation
		JOINT RightLeg
		{
			OFFSET 0.00000 -42.11790 0.00000
			CHANNELS 3 Zrotation Xrotation Yrotation
			JOINT RightFoot
			{
				OFFSET 0.00000 -45.00020 -0.00001
				CHANNELS 3 Zrotation Xrotation Yrotation
				JOINT RightForeFoot
				{
					OFFSET 0.00000 -3.74820 0.00000
					CHANNELS 3 Zrotation Xrotation Yrotation
					JOINT RightToeBase
					{
						OFFSET 0.00000 0.06325 14.43120
						CHANNELS 3 Zrotation Xrotation Yrotation
						End site
						{
							OFFSET 0.00000 0.00000 0.00000
						}
					}
				}
			}
		}
	}
	JOINT LeftUpLeg
	{
		OFFSET 9.98441 0.00000 0.00000
		CHANNELS 3 Zrotation Xrotation Yrotation
		JOINT LeftLeg
		{
			OFFSET 0.00000 -42.11800 0.00000
			CHANNELS 3 Zrotation Xrotation Yrotation
			JOINT LeftFoot
			{
				OFFSET 0.00000 -45.00070 0.00000
				CHANNELS 3 Zrotation Xrotation Yrotation
				JOINT LeftForeFoot
				{
					OFFSET 0.00000 -3.74824 0.00000
					CHANNELS 3 Zrotation Xrotation Yrotation
					JOINT LeftToeBase
					{
						OFFSET 0.00000 0.06325 14.43110
						CHANNELS 3 Zrotation Xrotation Yrotation
						End site
						{
							OFFSET 0.00000 0.00000 0.00000
						}
					}
				}
			}
		}
	}
}
MOTION
Frames: 4
Frame Time: 0.050000
0.035009352305743 0.03368893095207574 -0.011961174362997089 -0.041327649659867245 0.007246881894707988 -0.04797362488036721 -3.2925755256311313 0.9531459755481766 -0.7934981506929485 -0.9385127452308992 3.519170872676089 0.3646564779111585 -1.1474536890057072 -1.8210403645947633 -3.614936395293411 0.4064700248099483 0.45334361730742095 -1.2095166258711687 -0.691807844248113 11.602201735706975 0.6183859140262356 -0.21551156704498378 -1.0249833465113982 1.1931917240181953 -0.3461572654595832 -16.77357984659686 0.14826921930005882 -4.277546512830857 1.5803325221849724 -12.957516959063494 70.86661448400162 20.174747803597523 10.034325616636297 17.026780441140804 3.8059434048569942 73.27676269305151 16.189520492019113 -0.383380830313446 -3.5801183508916536 4.562023910689981 -0.16242361300866667 -1.603897188133974 0.03733457982346915 0.018675183552653362 -56.1862238054 -0.013164481950658634 -0.032185705004946434 -56.23993511664114 -38.73798821227878 -0.038406137895544964 0.012798204032333645 -0.017879939450914425 -0.028652916659255522 -0.01623689795244643 -0.04995776172935823 0.04483960754098059 -0.014306957079962497 -36.681220276550036 0.014652231700631044 -0.002723698306786189 0.005385784255090467 0.005084399775546601 0.025696335203602382 0.021183946352665503 -0.04278773042609599 0.02176236899475562 -19.785376595662154 0.008423629617188046 0.040560557940847765 0.023602759276351696 0.0495054603101643 -0.048894509931991195 -0.02843797014271179 0.04563079054327781 0.018499082950534058 24.043743220013326 0.02656717061634835 0.045226028409125076 28.84650583915589 0.024641250675658064 0.002790719564712856 28.903358640574176 0.02708858218040702 0.004180226255035025 8.50576826685192 1.9077047998115104 10.04344523258208 -64.0128307542981 21.273426382183843 -28.993824889600738 -44.90145459821096 0.35532214225108294 -74.84715532516535 -11.704176559143527 -4.287034085054681 3.525375669075985 -0.46701436002569435 0.052597239189498546 -8.134158391139557 0.006921017162503311 -0.021221859166335597 44.560900260216926 0.0068195727889293675 0.044581322918331286 44.61087635191426 12.49059435892873 0.004603885843543423 0.020249054106590093 0.03245598249512543 -0.009906170707787976 -0.049496844047950926 -0.04939560945041864 0.0256961869149585 0.034273045806332766 11.140867247513501 -0.008890739822051796 -0.004097841135025362 -0.023504362043935172 -0.039672577708614924 -0.038132249563250356 0.04064562316781575 -0.02549698225160695 0.014968944722291998 4.805629762411184 0.01692354431195358 -0.0015120523511003541 -0.020040675932550024 0.021248362959030934 -0.0016554420871205543 0.010264291185982986 0.022488246974419653 -0.04349230417156274 -5.577451733948479 -0.033643048560978626 0.02383305687529101 -6.703160801919215 -0.044986071850326825 -0.02264795989165348 -6.728671450145159 0.03984781720096763 -0.00782151947061456 -0.04196021011572179 0.005543906700337741 0.019019327202760932 8.052263521129344 3.481585715388749 -19.207550461501327 -0.043925284371611355 10.40596006013379 0.03262533391403957 -5.616097029185061 -15.61690568016388 3.1436373589985247 0.02377046649393853 -0.038262442956504196 -0.0072449070929638424 -0.04416558279973693 4.725713018962364 -0.010604580748068288 12.45935123573677 -8.230300522812819 6.862713219765923 -0.04071017254496346 46.38792040264858 0.004248381834904542 -4.311881805621601 -14.783657017588487 -3.8209687193487767 -0.03585348832798742 -0.04408096393676657 -0.023534217201521358 -0.045062407196388564 -10.698612794538077 -0.008821277385861111 
0.034343703624022136 0.03161874077871644 -0.029299427990473633 0.037308962675548715 -0.042057069882061204 0.04577190876985 -3.3377845951586695 0.9517230388238624 -0.7982210435854895 -0.966901595912341 3.545778950714706 0.29593234013253716 -1.0876070702661154 -1.794499716022712 -3.6215785583534603 0.46403637885483584 0.48535126081402885 -1.2169925423814063 -0.710579952478327 11.557642420528804 0.6082857405548037 -0.2018427312953982 -1.0432559182249674 1.3061195638720509 -0.315212670659222 -16.70199413931211 0.09643926860716819 -4.159984609442579 1.5507993612115574 -12.898573304195764 71.0368314056139 20.202452893291795 10.315060805521357 19.80606280494563 3.8077878983259787 73.91830123397915 16.23238129108683 -0.3696949533756617 -3.6187292064872483 4.497786692462054 -0.1649905485151914 -1.5768065673742753 -0.04347265947353034 -0.034941932860051456 -56.23522629025418 0.022226145877306803 0.0048067999234439095 -56.24200465858361 -38.77129725580304 -0.04389101991769746 0.005086220911449953 -0.01297202078045674 0.024719226232881412 -0.045733486555891704 0.002542457531341322 0.020113833296318776 -0.008256559956263315 -36.71376132173685 0.026456354254313183 0.03418437170860254 -0.038932811844689524 0.02932764969908792 0.0039952080193575 -0.018544398490869723 -0.04966686936807963 -0.036186118116840506 -19.761935718602555 0.00780426513066166 0.043713935673142086 0.03267058561004175 -0.01640946620004963 0.030130075179752743 0.01022686421421169 -0.004103748548045224 0.011599041483483619 24.017024201841565 0.009388884868919709 0.022954353513545273 28.887647123002303 0.02049138877729251 0.0436919265817872 28.852205162678054 -0.027147106167800063 -0.016868370799341056 8.537607437601169 1.9145556350462265 9.984715754805023 -63.97832527845283 21.147953302015924 -29.485867037817986 -48.66474891958729 1.6126193128806512 -76.54510848773693 -12.075495838036767 -4.276480081199676 3.590155291241661 -0.48543908851023865 0.0709028024322692 -8.131119936455315 -0.03437525226168413 0.005810257458630923 44.58828089236512 -0.003039818933093122 -0.019846368754989192 44.55840959790175 12.441989892393957 0.02185068151076285 0.0048651903069824075 0.037161548828442206 -0.02430754671920677 -0.007747907584239757 -0.01024176208739202 0.008222369402937262 -0.03860278509621639 11.104377167655047 -0.014294359854236582 -0.009956610145656004 0.014995367373742848 -0.003616068458329656 0.03595429025433607 -0.02016433688712569 0.02501647843593861 -0.02081588809191842 4.755359148678928 -0.003585374066226296 -0.011460419524348422 -0.01858338640304635 0.03426874282565324 0.030501253570063707 -0.035852940431695006 -0.02703473491949856 -0.040600336533047766 -5.5629381129502455 0.02675198507317562 -0.005285483013052463 -6.73261083350024 -0.0143501947756877 -0.04140242509220334 -6.711404093016682 0.009143538823752588 0.002701136488046266 -0.007599862442653811 -0.04087156553458181 0.027418183193586937 8.061703097789707 3.4659377012762125 -19.247357036147342 0.03759236635649765 10.34554076314227 -0.016954842017898958 -5.636729476792432 -15.629725004606508 3.203965786687328 -0.03533957162822459 -0.028025856150189755 0.000935599934775364 0.008998586917860252 4.706089912714382 -0.009116475738236197 12.425361980587704 -8.246387420349844 6.881020838726172 0.027327366807332804 46.35042616982563 0.03881650350917312 -4.330542390156242 -14.757974582666035 -3.8461317563210105 0.014538911710071952 0.039964125864854906 -0.037070855636726255 -0.020739250100943695 -10.7603053263206 0.032058284002357586 
0.02157030037337572 -0.03083079331398905 -0.0008142216715411122 -0.02678583613535805 -0.03385205758818404 -0.012110879631461772 -3.347913742919855 0.8460641114352098 -0.7766214806006655 -0.963148001336305 3.504428523710288 0.3515960574678829 -1.1269925030271706 -1.8076068155829812 -3.5634964025881604 0.4585336607421148 0.4878692511362671 -1.1601090424919716 -0.7348186934660772 11.560154059662832 0.6874772102293739 -0.1431858257359119 -1.0507386618052463 1.363381788030348 -0.3418840395285807 -16.728631218648385 0.08838980163271454 -4.155264394391758 1.5400067467033456 -12.853026393857446 71.17232009019324 19.785959330459498 10.463156884690651 20.78833579545573 3.436104513935058 73.39274323348582 16.40766968495016 -0.3365108100018646 -3.812288360460763 4.567145194745572 -0.09118842387590245 -1.5702861308947866 0.010624973736104356 -0.010275085547447436 -56.282509295812126 0.04658165388766692 0.013360401028291509 -56.21775461456682 -38.790839475062945 -0.01419717400700989 -0.04759788828706707 0.012726945610925668 -0.014263519463936544 0.01213645491888897 0.019413551959891716 0.04086494228479294 -0.015859088789672054 -36.703763288230206 0.004410975111654207 0.02774156513329808 -0.012945588027984766 -0.018060750759252057 -0.02625585036081127 0.03603263746032455 0.02083223056683252 0.045959919869805396 -19.728825002943577 0.04703429896790577 -0.04893586227684451 0.029279776104647447 -0.027123477499370142 0.022011140356824485 0.0264573437617538 -0.0034189314819706193 0.005949227767666151 24.015327242009533 0.026955046476802788 -0.01893650763223165 28.90317845756747 -0.0034190209016791333 -0.024248159744437985 28.908251915281955 0.0035706187710727623 -0.013991058091351035 8.500706981486095 1.8942943108813262 9.980222139187441 -63.909655750845964 21.05791957808617 -29.472398633927316 -50.900167620528045 1.8208367141285133 -77.50906294452984 -12.33920749769551 -4.609403562184699 3.7376695032354816 -0.5000377716613584 0.051964476714126615 -8.102655137202486 0.0040793195713198175 0.00818025807807227 44.540459829944176 -0.044267926490556615 0.03383305046969245 44.53253511005554 12.429831848966236 0.02506944040107704 0.03424430632336776 0.02541045423502624 0.02098606897777263 0.030709012072294577 0.024007518910602536 -0.03261764639263715 -0.032337270589152194 11.071878343179455 0.0015420873404643509 0.022124147474157387 -0.019344060484538187 -0.02078545344436005 0.028086435376020583 -0.04278553770231221 -0.049515412161295645 -0.0031450557154050545 4.790515818438289 -0.02470913648972222 0.02475450657425632 -0.02051128156213768 -0.015817529130009826 0.010988310967544985 -0.023806521556509697 0.015771892315490057 -0.002875107496030057 -5.621833446119961 -0.015699013279994657 0.00468063157232451 -6.698174888805016 -0.049609062081202165 -0.03916101721511311 -6.706238864400531 0.03105308724344723 0.00902215994085647 -0.0015419112903554898 0.013430724651872183 0.04261541592187975 8.011446118788147 3.530488636198077 -19.239970499467443 -0.0345773776726527 10.365109945930072 0.01712468033801519 -5.620621198516222 -15.636704412256805 3.239652085155886 0.03261692230306912 -0.006766636313623005 -0.0034936291739080653 0.025312394418304913 4.649097355878339 -0.01922412639099503 12.448010802481493 -8.286930555758683 6.858413313800915 0.046083210197632334 46.385468047730875 0.024359853091239884 -4.286430205205672 -14.768149791121242 -3.8007086240112136 0.0052207884658185735 0.002153328585793666 0.02240033695540914 -0.012281676932019028 -10.732197675518439 0.0216562991767133 
0.016973655754121752 -0.015235026591915925 0.008298329887401222 -0.01314492393092638 0.008703622210478148 0.019069813558337118 -3.3693737313633108 0.8302460848267366 -0.760477217018957 -1.0045051681136898 3.5215681871493008 0.36462379938432177 -1.099220631963258 -1.809007983720686 -3.580937516347346 0.48500132707475263 0.4604525064205772 -1.205271142306551 -0.7009550042679081 11.501976728049776 0.5636865586260904 -0.1425490164485909 -1.0105286660213018 1.2396796694332823 -0.346751950362318 -16.66535976560798 0.15885639436326243 -4.215453570588284 1.6263621339057217 -12.905009533674937 71.26384057448456 19.08021100906465 10.606001139879105 21.507421160344034 2.662834132046255 72.17649005074989 16.770400269527514 -0.32631913745924457 -4.018835303389427 4.513780120397075 -0.14204157932796954 -1.5473710254447741 0.013004486983307265 -0.005425499480118834 -56.23732417182869 -0.04089619602329047 -0.011313011530971348 -56.20119633161255 -38.81227517407806 0.03822459333910895 -0.012076275964736767 -0.02058296556486333 -0.01718426633699788 -0.036574703682785495 0.01891221973165444 0.03501908308400961 -0.04785380770133926 -36.70152835233107 0.02736680421104984 0.013280451922353338 -0.03241990846166636 -0.029771539158328263 -0.02906782246553691 -0.022428494197724722 0.004781687195501516 0.034746405642638784 -19.756503818553696 0.02087720649910066 0.04567293192027997 0.03639094170350218 0.04586261573146697 0.01886481621888367 -0.04652951474509969 0.008456786167357106 0.040601273910768024 24.023159196458128 -0.04006422658144985 0.015039935752672186 28.872800687573356 -0.007043379914304131 -0.008009530759634108 28.832686645976224 0.02777171175511909 0.04547688037212728 8.473661261263452 1.915398008069296 10.061652493461832 -63.88515651661664 21.17760638005419 -29.1844426443756 -51.78742834213025 1.044186912704986 -78.16557951867195 -12.179783479958957 -4.93725029901005 3.987928061489875 -0.43499881026290976 0.02203462179091483 -8.124044913865298 0.013751555714540007 -0.0006290223344700706 44.575626220623576 0.0009039346772813332 0.028110192901625773 44.546107757526556 12.475321569988573 -0.007151163615735759 -0.00028452892097452064 0.0305901854444876 -0.030088355235185778 -0.0148600688825627 -0.021336748470364052 0.04877160942177045 0.03787687216320321 11.065116139290192 0.04381475570040282 0.04172531457652814 0.02517487462866105 -0.028204524652412497 -0.042101035185869565 -0.011923136281477238 0.022418032168815424 -0.01663787005265405 4.816777505187482 0.04816774402652063 -0.03644289561875006 -0.046465145722751004 -0.030685310705964 0.037341662622478865 -0.031732522337167265 0.04364739914173221 -0.00015164102467761005 -5.612675400193566 0.002729925719950384 0.002550466632140981 -6.750699573688397 -0.042957537621166525 -0.013164891213126287 -6.724927066882108 -0.004588536222958409 0.01028635037258143 0.03275047937703191 0.02572931086114562 0.0426726742279688 7.997695202330692 3.4948694437076044 -19.177247419375266 -0.0336865285034358 10.352692348658232 0.0017087821822882737 -5.669977116719377 -15.635770084249051 3.1886682126722565 0.015513544379050734 0.017062188348406254 -0.0030197615945643194 -0.016344514849451156 4.661204608208138 -0.03323443413656247 12.431447330813599 -8.19833895939617 6.876747849324999 -0.01925029965043764 46.35832144547418 -0.007944799762175448 -4.282154713435373 -14.772970890289168 -3.8692528543024163 -0.01928716060206491 -0.034284348310052046 -0.020849437591307952 0.0013582657243709803 -10.70510875911765 -0.025004128362960776 
